<mxfile host="app.diagrams.net" modified="2023-12-27T12:46:05.337Z" agent="Mozilla/5.0 (Windows NT 10.0; Win64; x64) AppleWebKit/537.36 (KHTML, like Gecko) Chrome/120.0.0.0 Safari/537.36" version="22.1.12" etag="W2HosMEGh3HkhyKRty_v" type="github">
  <diagram name="페이지-1" id="dZFn5_4xd2TmaeedloMG">
    <mxGraphModel>
      <root>
        <mxCell id="0" />
        <mxCell id="1" parent="0" />
      </root>
    </mxGraphModel>
  </diagram>
</mxfile>
